<svg width="360" height="42" viewBox="0 0 360 42" fill="none" xmlns="http://www.w3.org/2000/svg">
<g filter="url(#filter0_d_27_4230)">
<path fill-rule="evenodd" clip-rule="evenodd" d="M10.5 2.13397C10.348 2.04621 10.1755 2 10 2C9.82446 2 9.65202 2.04621 9.5 2.13397L3.5 5.71097C3.34798 5.79874 3.22175 5.92497 3.13398 6.07699C3.04621 6.229 3 6.40144 3 6.57697V13.423C3 13.5985 3.04621 13.7709 3.13398 13.923C3.22175 14.075 3.34798 14.2012 3.5 14.289L9.5 17.866C9.65202 17.9537 9.82446 17.9999 10 17.9999C10.1755 17.9999 10.348 17.9537 10.5 17.866L16.5 14.289C16.652 14.2012 16.7783 14.075 16.866 13.923C16.9538 13.7709 17 13.5985 17 13.423V6.57697C17 6.40144 16.9538 6.229 16.866 6.07699C16.7783 5.92497 16.652 5.79874 16.5 5.71097L10.5 2.13397Z" fill="#424242"/>
</g>
<g filter="url(#filter1_d_27_4230)">
<path fill-rule="evenodd" clip-rule="evenodd" d="M-1.5 20.134C-1.65202 20.0462 -1.82446 20 -2 20C-2.17554 20 -2.34798 20.0462 -2.5 20.134L-8.5 23.711C-8.65202 23.7987 -8.77825 23.925 -8.86602 24.077C-8.95379 24.229 -9 24.4014 -9 24.577V31.423C-9 31.5985 -8.95379 31.7709 -8.86602 31.923C-8.77825 32.075 -8.65202 32.2012 -8.5 32.289L-2.5 35.866C-2.34798 35.9537 -2.17554 35.9999 -2 35.9999C-1.82446 35.9999 -1.65202 35.9537 -1.5 35.866L4.5 32.289C4.65202 32.2012 4.77825 32.075 4.86602 31.923C4.95379 31.7709 5 31.5985 5 31.423V24.577C5 24.4014 4.95379 24.229 4.86602 24.077C4.77825 23.925 4.65202 23.7987 4.5 23.711L-1.5 20.134Z" fill="#424242"/>
</g>
<g filter="url(#filter2_d_27_4230)">
<path fill-rule="evenodd" clip-rule="evenodd" d="M30.5 2.13397C30.348 2.04621 30.1755 2 30 2C29.8245 2 29.652 2.04621 29.5 2.13397L23.5 5.71097C23.348 5.79874 23.2217 5.92497 23.134 6.07699C23.0462 6.229 23 6.40144 23 6.57697V13.423C23 13.5985 23.0462 13.7709 23.134 13.923C23.2217 14.075 23.348 14.2012 23.5 14.289L29.5 17.866C29.652 17.9537 29.8245 17.9999 30 17.9999C30.1755 17.9999 30.348 17.9537 30.5 17.866L36.5 14.289C36.652 14.2012 36.7783 14.075 36.866 13.923C36.9538 13.7709 37 13.5985 37 13.423V6.57697C37 6.40144 36.9538 6.229 36.866 6.07699C36.7783 5.92497 36.652 5.79874 36.5 5.71097L30.5 2.13397Z" fill="#424242"/>
</g>
<g filter="url(#filter3_d_27_4230)">
<path fill-rule="evenodd" clip-rule="evenodd" d="M18.5 20.134C18.348 20.0462 18.1755 20 18 20C17.8245 20 17.652 20.0462 17.5 20.134L11.5 23.711C11.348 23.7987 11.2217 23.925 11.134 24.077C11.0462 24.229 11 24.4014 11 24.577V31.423C11 31.5985 11.0462 31.7709 11.134 31.923C11.2217 32.075 11.348 32.2012 11.5 32.289L17.5 35.866C17.652 35.9537 17.8245 35.9999 18 35.9999C18.1755 35.9999 18.348 35.9537 18.5 35.866L24.5 32.289C24.652 32.2012 24.7783 32.075 24.866 31.923C24.9538 31.7709 25 31.5985 25 31.423V24.577C25 24.4014 24.9538 24.229 24.866 24.077C24.7783 23.925 24.652 23.7987 24.5 23.711L18.5 20.134Z" fill="#424242"/>
</g>
<g filter="url(#filter4_d_27_4230)">
<path fill-rule="evenodd" clip-rule="evenodd" d="M38.5 20.134C38.348 20.0462 38.1755 20 38 20C37.8245 20 37.652 20.0462 37.5 20.134L31.5 23.711C31.348 23.7987 31.2217 23.925 31.134 24.077C31.0462 24.229 31 24.4014 31 24.577V31.423C31 31.5985 31.0462 31.7709 31.134 31.923C31.2217 32.075 31.348 32.2012 31.5 32.289L37.5 35.866C37.652 35.9537 37.8245 35.9999 38 35.9999C38.1755 35.9999 38.348 35.9537 38.5 35.866L44.5 32.289C44.652 32.2012 44.7783 32.075 44.866 31.923C44.9538 31.7709 45 31.5985 45 31.423V24.577C45 24.4014 44.9538 24.229 44.866 24.077C44.7783 23.925 44.652 23.7987 44.5 23.711L38.5 20.134Z" fill="#424242"/>
</g>
<g filter="url(#filter5_d_27_4230)">
<path fill-rule="evenodd" clip-rule="evenodd" d="M50.5 2.13397C50.348 2.04621 50.1755 2 50 2C49.8245 2 49.652 2.04621 49.5 2.13397L43.5 5.71097C43.348 5.79874 43.2217 5.92497 43.134 6.07699C43.0462 6.229 43 6.40144 43 6.57697V13.423C43 13.5985 43.0462 13.7709 43.134 13.923C43.2217 14.075 43.348 14.2012 43.5 14.289L49.5 17.866C49.652 17.9537 49.8245 17.9999 50 17.9999C50.1755 17.9999 50.348 17.9537 50.5 17.866L56.5 14.289C56.652 14.2012 56.7783 14.075 56.866 13.923C56.9538 13.7709 57 13.5985 57 13.423V6.57697C57 6.40144 56.9538 6.229 56.866 6.07699C56.7783 5.92497 56.652 5.79874 56.5 5.71097L50.5 2.13397Z" fill="#424242"/>
</g>
<g filter="url(#filter6_d_27_4230)">
<path fill-rule="evenodd" clip-rule="evenodd" d="M70.5 2.13397C70.348 2.04621 70.1755 2 70 2C69.8245 2 69.652 2.04621 69.5 2.13397L63.5 5.71097C63.348 5.79874 63.2217 5.92497 63.134 6.07699C63.0462 6.229 63 6.40144 63 6.57697V13.423C63 13.5985 63.0462 13.7709 63.134 13.923C63.2217 14.075 63.348 14.2012 63.5 14.289L69.5 17.866C69.652 17.9537 69.8245 17.9999 70 17.9999C70.1755 17.9999 70.348 17.9537 70.5 17.866L76.5 14.289C76.652 14.2012 76.7783 14.075 76.866 13.923C76.9538 13.7709 77 13.5985 77 13.423V6.57697C77 6.40144 76.9538 6.229 76.866 6.07699C76.7783 5.92497 76.652 5.79874 76.5 5.71097L70.5 2.13397Z" fill="#424242"/>
</g>
<g filter="url(#filter7_d_27_4230)">
<path fill-rule="evenodd" clip-rule="evenodd" d="M58.5 20.134C58.348 20.0462 58.1755 20 58 20C57.8245 20 57.652 20.0462 57.5 20.134L51.5 23.711C51.348 23.7987 51.2217 23.925 51.134 24.077C51.0462 24.229 51 24.4014 51 24.577V31.423C51 31.5985 51.0462 31.7709 51.134 31.923C51.2217 32.075 51.348 32.2012 51.5 32.289L57.5 35.866C57.652 35.9537 57.8245 35.9999 58 35.9999C58.1755 35.9999 58.348 35.9537 58.5 35.866L64.5 32.289C64.652 32.2012 64.7783 32.075 64.866 31.923C64.9538 31.7709 65 31.5985 65 31.423V24.577C65 24.4014 64.9538 24.229 64.866 24.077C64.7783 23.925 64.652 23.7987 64.5 23.711L58.5 20.134Z" fill="#424242"/>
</g>
<g filter="url(#filter8_d_27_4230)">
<path fill-rule="evenodd" clip-rule="evenodd" d="M90.5 2.13397C90.348 2.04621 90.1755 2 90 2C89.8245 2 89.652 2.04621 89.5 2.13397L83.5 5.71097C83.348 5.79874 83.2217 5.92497 83.134 6.07699C83.0462 6.229 83 6.40144 83 6.57697V13.423C83 13.5985 83.0462 13.7709 83.134 13.923C83.2217 14.075 83.348 14.2012 83.5 14.289L89.5 17.866C89.652 17.9537 89.8245 17.9999 90 17.9999C90.1755 17.9999 90.348 17.9537 90.5 17.866L96.5 14.289C96.652 14.2012 96.7783 14.075 96.866 13.923C96.9538 13.7709 97 13.5985 97 13.423V6.57697C97 6.40144 96.9538 6.229 96.866 6.07699C96.7783 5.92497 96.652 5.79874 96.5 5.71097L90.5 2.13397Z" fill="#424242"/>
</g>
<g filter="url(#filter9_d_27_4230)">
<path fill-rule="evenodd" clip-rule="evenodd" d="M78.5 20.134C78.348 20.0462 78.1755 20 78 20C77.8245 20 77.652 20.0462 77.5 20.134L71.5 23.711C71.348 23.7987 71.2217 23.925 71.134 24.077C71.0462 24.229 71 24.4014 71 24.577V31.423C71 31.5985 71.0462 31.7709 71.134 31.923C71.2217 32.075 71.348 32.2012 71.5 32.289L77.5 35.866C77.652 35.9537 77.8245 35.9999 78 35.9999C78.1755 35.9999 78.348 35.9537 78.5 35.866L84.5 32.289C84.652 32.2012 84.7783 32.075 84.866 31.923C84.9538 31.7709 85 31.5985 85 31.423V24.577C85 24.4014 84.9538 24.229 84.866 24.077C84.7783 23.925 84.652 23.7987 84.5 23.711L78.5 20.134Z" fill="#424242"/>
</g>
<g filter="url(#filter10_d_27_4230)">
<path fill-rule="evenodd" clip-rule="evenodd" d="M110.5 2.13397C110.348 2.04621 110.176 2 110 2C109.824 2 109.652 2.04621 109.5 2.13397L103.5 5.71097C103.348 5.79874 103.222 5.92497 103.134 6.07699C103.046 6.229 103 6.40144 103 6.57697V13.423C103 13.5985 103.046 13.7709 103.134 13.923C103.222 14.075 103.348 14.2012 103.5 14.289L109.5 17.866C109.652 17.9537 109.824 17.9999 110 17.9999C110.176 17.9999 110.348 17.9537 110.5 17.866L116.5 14.289C116.652 14.2012 116.778 14.075 116.866 13.923C116.954 13.7709 117 13.5985 117 13.423V6.57697C117 6.40144 116.954 6.229 116.866 6.07699C116.778 5.92497 116.652 5.79874 116.5 5.71097L110.5 2.13397Z" fill="#424242"/>
</g>
<g filter="url(#filter11_d_27_4230)">
<path fill-rule="evenodd" clip-rule="evenodd" d="M98.5 20.134C98.348 20.0462 98.1755 20 98 20C97.8245 20 97.652 20.0462 97.5 20.134L91.5 23.711C91.348 23.7987 91.2217 23.925 91.134 24.077C91.0462 24.229 91 24.4014 91 24.577V31.423C91 31.5985 91.0462 31.7709 91.134 31.923C91.2217 32.075 91.348 32.2012 91.5 32.289L97.5 35.866C97.652 35.9537 97.8245 35.9999 98 35.9999C98.1755 35.9999 98.348 35.9537 98.5 35.866L104.5 32.289C104.652 32.2012 104.778 32.075 104.866 31.923C104.954 31.7709 105 31.5985 105 31.423V24.577C105 24.4014 104.954 24.229 104.866 24.077C104.778 23.925 104.652 23.7987 104.5 23.711L98.5 20.134Z" fill="#424242"/>
</g>
<g filter="url(#filter12_d_27_4230)">
<path fill-rule="evenodd" clip-rule="evenodd" d="M130.5 2.13397C130.348 2.04621 130.176 2 130 2C129.824 2 129.652 2.04621 129.5 2.13397L123.5 5.71097C123.348 5.79874 123.222 5.92497 123.134 6.07699C123.046 6.229 123 6.40144 123 6.57697V13.423C123 13.5985 123.046 13.7709 123.134 13.923C123.222 14.075 123.348 14.2012 123.5 14.289L129.5 17.866C129.652 17.9537 129.824 17.9999 130 17.9999C130.176 17.9999 130.348 17.9537 130.5 17.866L136.5 14.289C136.652 14.2012 136.778 14.075 136.866 13.923C136.954 13.7709 137 13.5985 137 13.423V6.57697C137 6.40144 136.954 6.229 136.866 6.07699C136.778 5.92497 136.652 5.79874 136.5 5.71097L130.5 2.13397Z" fill="#424242"/>
</g>
<g filter="url(#filter13_d_27_4230)">
<path fill-rule="evenodd" clip-rule="evenodd" d="M118.5 20.134C118.348 20.0462 118.176 20 118 20C117.824 20 117.652 20.0462 117.5 20.134L111.5 23.711C111.348 23.7987 111.222 23.925 111.134 24.077C111.046 24.229 111 24.4014 111 24.577V31.423C111 31.5985 111.046 31.7709 111.134 31.923C111.222 32.075 111.348 32.2012 111.5 32.289L117.5 35.866C117.652 35.9537 117.824 35.9999 118 35.9999C118.176 35.9999 118.348 35.9537 118.5 35.866L124.5 32.289C124.652 32.2012 124.778 32.075 124.866 31.923C124.954 31.7709 125 31.5985 125 31.423V24.577C125 24.4014 124.954 24.229 124.866 24.077C124.778 23.925 124.652 23.7987 124.5 23.711L118.5 20.134Z" fill="#424242"/>
</g>
<g filter="url(#filter14_d_27_4230)">
<path fill-rule="evenodd" clip-rule="evenodd" d="M150.5 2.13397C150.348 2.04621 150.176 2 150 2C149.824 2 149.652 2.04621 149.5 2.13397L143.5 5.71097C143.348 5.79874 143.222 5.92497 143.134 6.07699C143.046 6.229 143 6.40144 143 6.57697V13.423C143 13.5985 143.046 13.7709 143.134 13.923C143.222 14.075 143.348 14.2012 143.5 14.289L149.5 17.866C149.652 17.9537 149.824 17.9999 150 17.9999C150.176 17.9999 150.348 17.9537 150.5 17.866L156.5 14.289C156.652 14.2012 156.778 14.075 156.866 13.923C156.954 13.7709 157 13.5985 157 13.423V6.57697C157 6.40144 156.954 6.229 156.866 6.07699C156.778 5.92497 156.652 5.79874 156.5 5.71097L150.5 2.13397Z" fill="#424242"/>
</g>
<g filter="url(#filter15_d_27_4230)">
<path fill-rule="evenodd" clip-rule="evenodd" d="M138.5 20.134C138.348 20.0462 138.176 20 138 20C137.824 20 137.652 20.0462 137.5 20.134L131.5 23.711C131.348 23.7987 131.222 23.925 131.134 24.077C131.046 24.229 131 24.4014 131 24.577V31.423C131 31.5985 131.046 31.7709 131.134 31.923C131.222 32.075 131.348 32.2012 131.5 32.289L137.5 35.866C137.652 35.9537 137.824 35.9999 138 35.9999C138.176 35.9999 138.348 35.9537 138.5 35.866L144.5 32.289C144.652 32.2012 144.778 32.075 144.866 31.923C144.954 31.7709 145 31.5985 145 31.423V24.577C145 24.4014 144.954 24.229 144.866 24.077C144.778 23.925 144.652 23.7987 144.5 23.711L138.5 20.134Z" fill="#424242"/>
</g>
<g filter="url(#filter16_d_27_4230)">
<path fill-rule="evenodd" clip-rule="evenodd" d="M170.5 2.13397C170.348 2.04621 170.176 2 170 2C169.824 2 169.652 2.04621 169.5 2.13397L163.5 5.71097C163.348 5.79874 163.222 5.92497 163.134 6.07699C163.046 6.229 163 6.40144 163 6.57697V13.423C163 13.5985 163.046 13.7709 163.134 13.923C163.222 14.075 163.348 14.2012 163.5 14.289L169.5 17.866C169.652 17.9537 169.824 17.9999 170 17.9999C170.176 17.9999 170.348 17.9537 170.5 17.866L176.5 14.289C176.652 14.2012 176.778 14.075 176.866 13.923C176.954 13.7709 177 13.5985 177 13.423V6.57697C177 6.40144 176.954 6.229 176.866 6.07699C176.778 5.92497 176.652 5.79874 176.5 5.71097L170.5 2.13397Z" fill="#424242"/>
</g>
<g filter="url(#filter17_d_27_4230)">
<path fill-rule="evenodd" clip-rule="evenodd" d="M158.5 20.134C158.348 20.0462 158.176 20 158 20C157.824 20 157.652 20.0462 157.5 20.134L151.5 23.711C151.348 23.7987 151.222 23.925 151.134 24.077C151.046 24.229 151 24.4014 151 24.577V31.423C151 31.5985 151.046 31.7709 151.134 31.923C151.222 32.075 151.348 32.2012 151.5 32.289L157.5 35.866C157.652 35.9537 157.824 35.9999 158 35.9999C158.176 35.9999 158.348 35.9537 158.5 35.866L164.5 32.289C164.652 32.2012 164.778 32.075 164.866 31.923C164.954 31.7709 165 31.5985 165 31.423V24.577C165 24.4014 164.954 24.229 164.866 24.077C164.778 23.925 164.652 23.7987 164.5 23.711L158.5 20.134Z" fill="#424242"/>
</g>
<g filter="url(#filter18_d_27_4230)">
<path fill-rule="evenodd" clip-rule="evenodd" d="M190.5 2.13397C190.348 2.04621 190.176 2 190 2C189.824 2 189.652 2.04621 189.5 2.13397L183.5 5.71097C183.348 5.79874 183.222 5.92497 183.134 6.07699C183.046 6.229 183 6.40144 183 6.57697V13.423C183 13.5985 183.046 13.7709 183.134 13.923C183.222 14.075 183.348 14.2012 183.5 14.289L189.5 17.866C189.652 17.9537 189.824 17.9999 190 17.9999C190.176 17.9999 190.348 17.9537 190.5 17.866L196.5 14.289C196.652 14.2012 196.778 14.075 196.866 13.923C196.954 13.7709 197 13.5985 197 13.423V6.57697C197 6.40144 196.954 6.229 196.866 6.07699C196.778 5.92497 196.652 5.79874 196.5 5.71097L190.5 2.13397Z" fill="#424242"/>
</g>
<g filter="url(#filter19_d_27_4230)">
<path fill-rule="evenodd" clip-rule="evenodd" d="M178.5 20.134C178.348 20.0462 178.176 20 178 20C177.824 20 177.652 20.0462 177.5 20.134L171.5 23.711C171.348 23.7987 171.222 23.925 171.134 24.077C171.046 24.229 171 24.4014 171 24.577V31.423C171 31.5985 171.046 31.7709 171.134 31.923C171.222 32.075 171.348 32.2012 171.5 32.289L177.5 35.866C177.652 35.9537 177.824 35.9999 178 35.9999C178.176 35.9999 178.348 35.9537 178.5 35.866L184.5 32.289C184.652 32.2012 184.778 32.075 184.866 31.923C184.954 31.7709 185 31.5985 185 31.423V24.577C185 24.4014 184.954 24.229 184.866 24.077C184.778 23.925 184.652 23.7987 184.5 23.711L178.5 20.134Z" fill="#424242"/>
</g>
<g filter="url(#filter20_d_27_4230)">
<path fill-rule="evenodd" clip-rule="evenodd" d="M210.5 2.13397C210.348 2.04621 210.176 2 210 2C209.824 2 209.652 2.04621 209.5 2.13397L203.5 5.71097C203.348 5.79874 203.222 5.92497 203.134 6.07699C203.046 6.229 203 6.40144 203 6.57697V13.423C203 13.5985 203.046 13.7709 203.134 13.923C203.222 14.075 203.348 14.2012 203.5 14.289L209.5 17.866C209.652 17.9537 209.824 17.9999 210 17.9999C210.176 17.9999 210.348 17.9537 210.5 17.866L216.5 14.289C216.652 14.2012 216.778 14.075 216.866 13.923C216.954 13.7709 217 13.5985 217 13.423V6.57697C217 6.40144 216.954 6.229 216.866 6.07699C216.778 5.92497 216.652 5.79874 216.5 5.71097L210.5 2.13397Z" fill="#424242"/>
</g>
<g filter="url(#filter21_d_27_4230)">
<path fill-rule="evenodd" clip-rule="evenodd" d="M198.5 20.134C198.348 20.0462 198.176 20 198 20C197.824 20 197.652 20.0462 197.5 20.134L191.5 23.711C191.348 23.7987 191.222 23.925 191.134 24.077C191.046 24.229 191 24.4014 191 24.577V31.423C191 31.5985 191.046 31.7709 191.134 31.923C191.222 32.075 191.348 32.2012 191.5 32.289L197.5 35.866C197.652 35.9537 197.824 35.9999 198 35.9999C198.176 35.9999 198.348 35.9537 198.5 35.866L204.5 32.289C204.652 32.2012 204.778 32.075 204.866 31.923C204.954 31.7709 205 31.5985 205 31.423V24.577C205 24.4014 204.954 24.229 204.866 24.077C204.778 23.925 204.652 23.7987 204.5 23.711L198.5 20.134Z" fill="#424242"/>
</g>
<g filter="url(#filter22_d_27_4230)">
<path fill-rule="evenodd" clip-rule="evenodd" d="M230.5 2.13397C230.348 2.04621 230.176 2 230 2C229.824 2 229.652 2.04621 229.5 2.13397L223.5 5.71097C223.348 5.79874 223.222 5.92497 223.134 6.07699C223.046 6.229 223 6.40144 223 6.57697V13.423C223 13.5985 223.046 13.7709 223.134 13.923C223.222 14.075 223.348 14.2012 223.5 14.289L229.5 17.866C229.652 17.9537 229.824 17.9999 230 17.9999C230.176 17.9999 230.348 17.9537 230.5 17.866L236.5 14.289C236.652 14.2012 236.778 14.075 236.866 13.923C236.954 13.7709 237 13.5985 237 13.423V6.57697C237 6.40144 236.954 6.229 236.866 6.07699C236.778 5.92497 236.652 5.79874 236.5 5.71097L230.5 2.13397Z" fill="#424242"/>
</g>
<g filter="url(#filter23_d_27_4230)">
<path fill-rule="evenodd" clip-rule="evenodd" d="M218.5 20.134C218.348 20.0462 218.176 20 218 20C217.824 20 217.652 20.0462 217.5 20.134L211.5 23.711C211.348 23.7987 211.222 23.925 211.134 24.077C211.046 24.229 211 24.4014 211 24.577V31.423C211 31.5985 211.046 31.7709 211.134 31.923C211.222 32.075 211.348 32.2012 211.5 32.289L217.5 35.866C217.652 35.9537 217.824 35.9999 218 35.9999C218.176 35.9999 218.348 35.9537 218.5 35.866L224.5 32.289C224.652 32.2012 224.778 32.075 224.866 31.923C224.954 31.7709 225 31.5985 225 31.423V24.577C225 24.4014 224.954 24.229 224.866 24.077C224.778 23.925 224.652 23.7987 224.5 23.711L218.5 20.134Z" fill="#424242"/>
</g>
<g filter="url(#filter24_d_27_4230)">
<path fill-rule="evenodd" clip-rule="evenodd" d="M250.5 2.13397C250.348 2.04621 250.176 2 250 2C249.824 2 249.652 2.04621 249.5 2.13397L243.5 5.71097C243.348 5.79874 243.222 5.92497 243.134 6.07699C243.046 6.229 243 6.40144 243 6.57697V13.423C243 13.5985 243.046 13.7709 243.134 13.923C243.222 14.075 243.348 14.2012 243.5 14.289L249.5 17.866C249.652 17.9537 249.824 17.9999 250 17.9999C250.176 17.9999 250.348 17.9537 250.5 17.866L256.5 14.289C256.652 14.2012 256.778 14.075 256.866 13.923C256.954 13.7709 257 13.5985 257 13.423V6.57697C257 6.40144 256.954 6.229 256.866 6.07699C256.778 5.92497 256.652 5.79874 256.5 5.71097L250.5 2.13397Z" fill="#424242"/>
</g>
<g filter="url(#filter25_d_27_4230)">
<path fill-rule="evenodd" clip-rule="evenodd" d="M238.5 20.134C238.348 20.0462 238.176 20 238 20C237.824 20 237.652 20.0462 237.5 20.134L231.5 23.711C231.348 23.7987 231.222 23.925 231.134 24.077C231.046 24.229 231 24.4014 231 24.577V31.423C231 31.5985 231.046 31.7709 231.134 31.923C231.222 32.075 231.348 32.2012 231.5 32.289L237.5 35.866C237.652 35.9537 237.824 35.9999 238 35.9999C238.176 35.9999 238.348 35.9537 238.5 35.866L244.5 32.289C244.652 32.2012 244.778 32.075 244.866 31.923C244.954 31.7709 245 31.5985 245 31.423V24.577C245 24.4014 244.954 24.229 244.866 24.077C244.778 23.925 244.652 23.7987 244.5 23.711L238.5 20.134Z" fill="#424242"/>
</g>
<g filter="url(#filter26_d_27_4230)">
<path fill-rule="evenodd" clip-rule="evenodd" d="M270.5 2.13397C270.348 2.04621 270.176 2 270 2C269.824 2 269.652 2.04621 269.5 2.13397L263.5 5.71097C263.348 5.79874 263.222 5.92497 263.134 6.07699C263.046 6.229 263 6.40144 263 6.57697V13.423C263 13.5985 263.046 13.7709 263.134 13.923C263.222 14.075 263.348 14.2012 263.5 14.289L269.5 17.866C269.652 17.9537 269.824 17.9999 270 17.9999C270.176 17.9999 270.348 17.9537 270.5 17.866L276.5 14.289C276.652 14.2012 276.778 14.075 276.866 13.923C276.954 13.7709 277 13.5985 277 13.423V6.57697C277 6.40144 276.954 6.229 276.866 6.07699C276.778 5.92497 276.652 5.79874 276.5 5.71097L270.5 2.13397Z" fill="#424242"/>
</g>
<g filter="url(#filter27_d_27_4230)">
<path fill-rule="evenodd" clip-rule="evenodd" d="M258.5 20.134C258.348 20.0462 258.176 20 258 20C257.824 20 257.652 20.0462 257.5 20.134L251.5 23.711C251.348 23.7987 251.222 23.925 251.134 24.077C251.046 24.229 251 24.4014 251 24.577V31.423C251 31.5985 251.046 31.7709 251.134 31.923C251.222 32.075 251.348 32.2012 251.5 32.289L257.5 35.866C257.652 35.9537 257.824 35.9999 258 35.9999C258.176 35.9999 258.348 35.9537 258.5 35.866L264.5 32.289C264.652 32.2012 264.778 32.075 264.866 31.923C264.954 31.7709 265 31.5985 265 31.423V24.577C265 24.4014 264.954 24.229 264.866 24.077C264.778 23.925 264.652 23.7987 264.5 23.711L258.5 20.134Z" fill="#424242"/>
</g>
<g filter="url(#filter28_d_27_4230)">
<path fill-rule="evenodd" clip-rule="evenodd" d="M290.5 2.13397C290.348 2.04621 290.176 2 290 2C289.824 2 289.652 2.04621 289.5 2.13397L283.5 5.71097C283.348 5.79874 283.222 5.92497 283.134 6.07699C283.046 6.229 283 6.40144 283 6.57697V13.423C283 13.5985 283.046 13.7709 283.134 13.923C283.222 14.075 283.348 14.2012 283.5 14.289L289.5 17.866C289.652 17.9537 289.824 17.9999 290 17.9999C290.176 17.9999 290.348 17.9537 290.5 17.866L296.5 14.289C296.652 14.2012 296.778 14.075 296.866 13.923C296.954 13.7709 297 13.5985 297 13.423V6.57697C297 6.40144 296.954 6.229 296.866 6.07699C296.778 5.92497 296.652 5.79874 296.5 5.71097L290.5 2.13397Z" fill="#424242"/>
</g>
<g filter="url(#filter29_d_27_4230)">
<path fill-rule="evenodd" clip-rule="evenodd" d="M278.5 20.134C278.348 20.0462 278.176 20 278 20C277.824 20 277.652 20.0462 277.5 20.134L271.5 23.711C271.348 23.7987 271.222 23.925 271.134 24.077C271.046 24.229 271 24.4014 271 24.577V31.423C271 31.5985 271.046 31.7709 271.134 31.923C271.222 32.075 271.348 32.2012 271.5 32.289L277.5 35.866C277.652 35.9537 277.824 35.9999 278 35.9999C278.176 35.9999 278.348 35.9537 278.5 35.866L284.5 32.289C284.652 32.2012 284.778 32.075 284.866 31.923C284.954 31.7709 285 31.5985 285 31.423V24.577C285 24.4014 284.954 24.229 284.866 24.077C284.778 23.925 284.652 23.7987 284.5 23.711L278.5 20.134Z" fill="#424242"/>
</g>
<g filter="url(#filter30_d_27_4230)">
<path fill-rule="evenodd" clip-rule="evenodd" d="M310.5 2.13397C310.348 2.04621 310.176 2 310 2C309.824 2 309.652 2.04621 309.5 2.13397L303.5 5.71097C303.348 5.79874 303.222 5.92497 303.134 6.07699C303.046 6.229 303 6.40144 303 6.57697V13.423C303 13.5985 303.046 13.7709 303.134 13.923C303.222 14.075 303.348 14.2012 303.5 14.289L309.5 17.866C309.652 17.9537 309.824 17.9999 310 17.9999C310.176 17.9999 310.348 17.9537 310.5 17.866L316.5 14.289C316.652 14.2012 316.778 14.075 316.866 13.923C316.954 13.7709 317 13.5985 317 13.423V6.57697C317 6.40144 316.954 6.229 316.866 6.07699C316.778 5.92497 316.652 5.79874 316.5 5.71097L310.5 2.13397Z" fill="#424242"/>
</g>
<g filter="url(#filter31_d_27_4230)">
<path fill-rule="evenodd" clip-rule="evenodd" d="M298.5 20.134C298.348 20.0462 298.176 20 298 20C297.824 20 297.652 20.0462 297.5 20.134L291.5 23.711C291.348 23.7987 291.222 23.925 291.134 24.077C291.046 24.229 291 24.4014 291 24.577V31.423C291 31.5985 291.046 31.7709 291.134 31.923C291.222 32.075 291.348 32.2012 291.5 32.289L297.5 35.866C297.652 35.9537 297.824 35.9999 298 35.9999C298.176 35.9999 298.348 35.9537 298.5 35.866L304.5 32.289C304.652 32.2012 304.778 32.075 304.866 31.923C304.954 31.7709 305 31.5985 305 31.423V24.577C305 24.4014 304.954 24.229 304.866 24.077C304.778 23.925 304.652 23.7987 304.5 23.711L298.5 20.134Z" fill="#424242"/>
</g>
<g filter="url(#filter32_d_27_4230)">
<path fill-rule="evenodd" clip-rule="evenodd" d="M330.5 2.13397C330.348 2.04621 330.176 2 330 2C329.824 2 329.652 2.04621 329.5 2.13397L323.5 5.71097C323.348 5.79874 323.222 5.92497 323.134 6.07699C323.046 6.229 323 6.40144 323 6.57697V13.423C323 13.5985 323.046 13.7709 323.134 13.923C323.222 14.075 323.348 14.2012 323.5 14.289L329.5 17.866C329.652 17.9537 329.824 17.9999 330 17.9999C330.176 17.9999 330.348 17.9537 330.5 17.866L336.5 14.289C336.652 14.2012 336.778 14.075 336.866 13.923C336.954 13.7709 337 13.5985 337 13.423V6.57697C337 6.40144 336.954 6.229 336.866 6.07699C336.778 5.92497 336.652 5.79874 336.5 5.71097L330.5 2.13397Z" fill="#424242"/>
</g>
<g filter="url(#filter33_d_27_4230)">
<path fill-rule="evenodd" clip-rule="evenodd" d="M318.5 20.134C318.348 20.0462 318.176 20 318 20C317.824 20 317.652 20.0462 317.5 20.134L311.5 23.711C311.348 23.7987 311.222 23.925 311.134 24.077C311.046 24.229 311 24.4014 311 24.577V31.423C311 31.5985 311.046 31.7709 311.134 31.923C311.222 32.075 311.348 32.2012 311.5 32.289L317.5 35.866C317.652 35.9537 317.824 35.9999 318 35.9999C318.176 35.9999 318.348 35.9537 318.5 35.866L324.5 32.289C324.652 32.2012 324.778 32.075 324.866 31.923C324.954 31.7709 325 31.5985 325 31.423V24.577C325 24.4014 324.954 24.229 324.866 24.077C324.778 23.925 324.652 23.7987 324.5 23.711L318.5 20.134Z" fill="#424242"/>
</g>
<g filter="url(#filter34_d_27_4230)">
<path fill-rule="evenodd" clip-rule="evenodd" d="M350.5 2.13397C350.348 2.04621 350.176 2 350 2C349.824 2 349.652 2.04621 349.5 2.13397L343.5 5.71097C343.348 5.79874 343.222 5.92497 343.134 6.07699C343.046 6.229 343 6.40144 343 6.57697V13.423C343 13.5985 343.046 13.7709 343.134 13.923C343.222 14.075 343.348 14.2012 343.5 14.289L349.5 17.866C349.652 17.9537 349.824 17.9999 350 17.9999C350.176 17.9999 350.348 17.9537 350.5 17.866L356.5 14.289C356.652 14.2012 356.778 14.075 356.866 13.923C356.954 13.7709 357 13.5985 357 13.423V6.57697C357 6.40144 356.954 6.229 356.866 6.07699C356.778 5.92497 356.652 5.79874 356.5 5.71097L350.5 2.13397Z" fill="#424242"/>
</g>
<g filter="url(#filter35_d_27_4230)">
<path fill-rule="evenodd" clip-rule="evenodd" d="M338.5 20.134C338.348 20.0462 338.176 20 338 20C337.824 20 337.652 20.0462 337.5 20.134L331.5 23.711C331.348 23.7987 331.222 23.925 331.134 24.077C331.046 24.229 331 24.4014 331 24.577V31.423C331 31.5985 331.046 31.7709 331.134 31.923C331.222 32.075 331.348 32.2012 331.5 32.289L337.5 35.866C337.652 35.9537 337.824 35.9999 338 35.9999C338.176 35.9999 338.348 35.9537 338.5 35.866L344.5 32.289C344.652 32.2012 344.778 32.075 344.866 31.923C344.954 31.7709 345 31.5985 345 31.423V24.577C345 24.4014 344.954 24.229 344.866 24.077C344.778 23.925 344.652 23.7987 344.5 23.711L338.5 20.134Z" fill="#424242"/>
</g>
<g filter="url(#filter36_d_27_4230)">
<path fill-rule="evenodd" clip-rule="evenodd" d="M358.5 20.134C358.348 20.0462 358.176 20 358 20C357.824 20 357.652 20.0462 357.5 20.134L351.5 23.711C351.348 23.7987 351.222 23.925 351.134 24.077C351.046 24.229 351 24.4014 351 24.577V31.423C351 31.5985 351.046 31.7709 351.134 31.923C351.222 32.075 351.348 32.2012 351.5 32.289L357.5 35.866C357.652 35.9537 357.824 35.9999 358 35.9999C358.176 35.9999 358.348 35.9537 358.5 35.866L364.5 32.289C364.652 32.2012 364.778 32.075 364.866 31.923C364.954 31.7709 365 31.5985 365 31.423V24.577C365 24.4014 364.954 24.229 364.866 24.077C364.778 23.925 364.652 23.7987 364.5 23.711L358.5 20.134Z" fill="#424242"/>
</g>
<defs>
<filter id="filter0_d_27_4230" x="0" y="0" width="22" height="23.9999" filterUnits="userSpaceOnUse" color-interpolation-filters="sRGB">
<feFlood flood-opacity="0" result="BackgroundImageFix"/>
<feColorMatrix in="SourceAlpha" type="matrix" values="0 0 0 0 0 0 0 0 0 0 0 0 0 0 0 0 0 0 127 0" result="hardAlpha"/>
<feOffset dx="1" dy="2"/>
<feGaussianBlur stdDeviation="2"/>
<feComposite in2="hardAlpha" operator="out"/>
<feColorMatrix type="matrix" values="0 0 0 0 0 0 0 0 0 0 0 0 0 0 0 0 0 0 0.25 0"/>
<feBlend mode="normal" in2="BackgroundImageFix" result="effect1_dropShadow_27_4230"/>
<feBlend mode="normal" in="SourceGraphic" in2="effect1_dropShadow_27_4230" result="shape"/>
</filter>
<filter id="filter1_d_27_4230" x="-12" y="18" width="22" height="23.9999" filterUnits="userSpaceOnUse" color-interpolation-filters="sRGB">
<feFlood flood-opacity="0" result="BackgroundImageFix"/>
<feColorMatrix in="SourceAlpha" type="matrix" values="0 0 0 0 0 0 0 0 0 0 0 0 0 0 0 0 0 0 127 0" result="hardAlpha"/>
<feOffset dx="1" dy="2"/>
<feGaussianBlur stdDeviation="2"/>
<feComposite in2="hardAlpha" operator="out"/>
<feColorMatrix type="matrix" values="0 0 0 0 0 0 0 0 0 0 0 0 0 0 0 0 0 0 0.25 0"/>
<feBlend mode="normal" in2="BackgroundImageFix" result="effect1_dropShadow_27_4230"/>
<feBlend mode="normal" in="SourceGraphic" in2="effect1_dropShadow_27_4230" result="shape"/>
</filter>
<filter id="filter2_d_27_4230" x="20" y="0" width="22" height="23.9999" filterUnits="userSpaceOnUse" color-interpolation-filters="sRGB">
<feFlood flood-opacity="0" result="BackgroundImageFix"/>
<feColorMatrix in="SourceAlpha" type="matrix" values="0 0 0 0 0 0 0 0 0 0 0 0 0 0 0 0 0 0 127 0" result="hardAlpha"/>
<feOffset dx="1" dy="2"/>
<feGaussianBlur stdDeviation="2"/>
<feComposite in2="hardAlpha" operator="out"/>
<feColorMatrix type="matrix" values="0 0 0 0 0 0 0 0 0 0 0 0 0 0 0 0 0 0 0.25 0"/>
<feBlend mode="normal" in2="BackgroundImageFix" result="effect1_dropShadow_27_4230"/>
<feBlend mode="normal" in="SourceGraphic" in2="effect1_dropShadow_27_4230" result="shape"/>
</filter>
<filter id="filter3_d_27_4230" x="8" y="18" width="22" height="23.9999" filterUnits="userSpaceOnUse" color-interpolation-filters="sRGB">
<feFlood flood-opacity="0" result="BackgroundImageFix"/>
<feColorMatrix in="SourceAlpha" type="matrix" values="0 0 0 0 0 0 0 0 0 0 0 0 0 0 0 0 0 0 127 0" result="hardAlpha"/>
<feOffset dx="1" dy="2"/>
<feGaussianBlur stdDeviation="2"/>
<feComposite in2="hardAlpha" operator="out"/>
<feColorMatrix type="matrix" values="0 0 0 0 0 0 0 0 0 0 0 0 0 0 0 0 0 0 0.25 0"/>
<feBlend mode="normal" in2="BackgroundImageFix" result="effect1_dropShadow_27_4230"/>
<feBlend mode="normal" in="SourceGraphic" in2="effect1_dropShadow_27_4230" result="shape"/>
</filter>
<filter id="filter4_d_27_4230" x="28" y="18" width="22" height="23.9999" filterUnits="userSpaceOnUse" color-interpolation-filters="sRGB">
<feFlood flood-opacity="0" result="BackgroundImageFix"/>
<feColorMatrix in="SourceAlpha" type="matrix" values="0 0 0 0 0 0 0 0 0 0 0 0 0 0 0 0 0 0 127 0" result="hardAlpha"/>
<feOffset dx="1" dy="2"/>
<feGaussianBlur stdDeviation="2"/>
<feComposite in2="hardAlpha" operator="out"/>
<feColorMatrix type="matrix" values="0 0 0 0 0 0 0 0 0 0 0 0 0 0 0 0 0 0 0.25 0"/>
<feBlend mode="normal" in2="BackgroundImageFix" result="effect1_dropShadow_27_4230"/>
<feBlend mode="normal" in="SourceGraphic" in2="effect1_dropShadow_27_4230" result="shape"/>
</filter>
<filter id="filter5_d_27_4230" x="40" y="0" width="22" height="23.9999" filterUnits="userSpaceOnUse" color-interpolation-filters="sRGB">
<feFlood flood-opacity="0" result="BackgroundImageFix"/>
<feColorMatrix in="SourceAlpha" type="matrix" values="0 0 0 0 0 0 0 0 0 0 0 0 0 0 0 0 0 0 127 0" result="hardAlpha"/>
<feOffset dx="1" dy="2"/>
<feGaussianBlur stdDeviation="2"/>
<feComposite in2="hardAlpha" operator="out"/>
<feColorMatrix type="matrix" values="0 0 0 0 0 0 0 0 0 0 0 0 0 0 0 0 0 0 0.25 0"/>
<feBlend mode="normal" in2="BackgroundImageFix" result="effect1_dropShadow_27_4230"/>
<feBlend mode="normal" in="SourceGraphic" in2="effect1_dropShadow_27_4230" result="shape"/>
</filter>
<filter id="filter6_d_27_4230" x="60" y="0" width="22" height="23.9999" filterUnits="userSpaceOnUse" color-interpolation-filters="sRGB">
<feFlood flood-opacity="0" result="BackgroundImageFix"/>
<feColorMatrix in="SourceAlpha" type="matrix" values="0 0 0 0 0 0 0 0 0 0 0 0 0 0 0 0 0 0 127 0" result="hardAlpha"/>
<feOffset dx="1" dy="2"/>
<feGaussianBlur stdDeviation="2"/>
<feComposite in2="hardAlpha" operator="out"/>
<feColorMatrix type="matrix" values="0 0 0 0 0 0 0 0 0 0 0 0 0 0 0 0 0 0 0.25 0"/>
<feBlend mode="normal" in2="BackgroundImageFix" result="effect1_dropShadow_27_4230"/>
<feBlend mode="normal" in="SourceGraphic" in2="effect1_dropShadow_27_4230" result="shape"/>
</filter>
<filter id="filter7_d_27_4230" x="48" y="18" width="22" height="23.9999" filterUnits="userSpaceOnUse" color-interpolation-filters="sRGB">
<feFlood flood-opacity="0" result="BackgroundImageFix"/>
<feColorMatrix in="SourceAlpha" type="matrix" values="0 0 0 0 0 0 0 0 0 0 0 0 0 0 0 0 0 0 127 0" result="hardAlpha"/>
<feOffset dx="1" dy="2"/>
<feGaussianBlur stdDeviation="2"/>
<feComposite in2="hardAlpha" operator="out"/>
<feColorMatrix type="matrix" values="0 0 0 0 0 0 0 0 0 0 0 0 0 0 0 0 0 0 0.25 0"/>
<feBlend mode="normal" in2="BackgroundImageFix" result="effect1_dropShadow_27_4230"/>
<feBlend mode="normal" in="SourceGraphic" in2="effect1_dropShadow_27_4230" result="shape"/>
</filter>
<filter id="filter8_d_27_4230" x="80" y="0" width="22" height="23.9999" filterUnits="userSpaceOnUse" color-interpolation-filters="sRGB">
<feFlood flood-opacity="0" result="BackgroundImageFix"/>
<feColorMatrix in="SourceAlpha" type="matrix" values="0 0 0 0 0 0 0 0 0 0 0 0 0 0 0 0 0 0 127 0" result="hardAlpha"/>
<feOffset dx="1" dy="2"/>
<feGaussianBlur stdDeviation="2"/>
<feComposite in2="hardAlpha" operator="out"/>
<feColorMatrix type="matrix" values="0 0 0 0 0 0 0 0 0 0 0 0 0 0 0 0 0 0 0.25 0"/>
<feBlend mode="normal" in2="BackgroundImageFix" result="effect1_dropShadow_27_4230"/>
<feBlend mode="normal" in="SourceGraphic" in2="effect1_dropShadow_27_4230" result="shape"/>
</filter>
<filter id="filter9_d_27_4230" x="68" y="18" width="22" height="23.9999" filterUnits="userSpaceOnUse" color-interpolation-filters="sRGB">
<feFlood flood-opacity="0" result="BackgroundImageFix"/>
<feColorMatrix in="SourceAlpha" type="matrix" values="0 0 0 0 0 0 0 0 0 0 0 0 0 0 0 0 0 0 127 0" result="hardAlpha"/>
<feOffset dx="1" dy="2"/>
<feGaussianBlur stdDeviation="2"/>
<feComposite in2="hardAlpha" operator="out"/>
<feColorMatrix type="matrix" values="0 0 0 0 0 0 0 0 0 0 0 0 0 0 0 0 0 0 0.25 0"/>
<feBlend mode="normal" in2="BackgroundImageFix" result="effect1_dropShadow_27_4230"/>
<feBlend mode="normal" in="SourceGraphic" in2="effect1_dropShadow_27_4230" result="shape"/>
</filter>
<filter id="filter10_d_27_4230" x="100" y="0" width="22" height="23.9999" filterUnits="userSpaceOnUse" color-interpolation-filters="sRGB">
<feFlood flood-opacity="0" result="BackgroundImageFix"/>
<feColorMatrix in="SourceAlpha" type="matrix" values="0 0 0 0 0 0 0 0 0 0 0 0 0 0 0 0 0 0 127 0" result="hardAlpha"/>
<feOffset dx="1" dy="2"/>
<feGaussianBlur stdDeviation="2"/>
<feComposite in2="hardAlpha" operator="out"/>
<feColorMatrix type="matrix" values="0 0 0 0 0 0 0 0 0 0 0 0 0 0 0 0 0 0 0.25 0"/>
<feBlend mode="normal" in2="BackgroundImageFix" result="effect1_dropShadow_27_4230"/>
<feBlend mode="normal" in="SourceGraphic" in2="effect1_dropShadow_27_4230" result="shape"/>
</filter>
<filter id="filter11_d_27_4230" x="88" y="18" width="22" height="23.9999" filterUnits="userSpaceOnUse" color-interpolation-filters="sRGB">
<feFlood flood-opacity="0" result="BackgroundImageFix"/>
<feColorMatrix in="SourceAlpha" type="matrix" values="0 0 0 0 0 0 0 0 0 0 0 0 0 0 0 0 0 0 127 0" result="hardAlpha"/>
<feOffset dx="1" dy="2"/>
<feGaussianBlur stdDeviation="2"/>
<feComposite in2="hardAlpha" operator="out"/>
<feColorMatrix type="matrix" values="0 0 0 0 0 0 0 0 0 0 0 0 0 0 0 0 0 0 0.25 0"/>
<feBlend mode="normal" in2="BackgroundImageFix" result="effect1_dropShadow_27_4230"/>
<feBlend mode="normal" in="SourceGraphic" in2="effect1_dropShadow_27_4230" result="shape"/>
</filter>
<filter id="filter12_d_27_4230" x="120" y="0" width="22" height="23.9999" filterUnits="userSpaceOnUse" color-interpolation-filters="sRGB">
<feFlood flood-opacity="0" result="BackgroundImageFix"/>
<feColorMatrix in="SourceAlpha" type="matrix" values="0 0 0 0 0 0 0 0 0 0 0 0 0 0 0 0 0 0 127 0" result="hardAlpha"/>
<feOffset dx="1" dy="2"/>
<feGaussianBlur stdDeviation="2"/>
<feComposite in2="hardAlpha" operator="out"/>
<feColorMatrix type="matrix" values="0 0 0 0 0 0 0 0 0 0 0 0 0 0 0 0 0 0 0.25 0"/>
<feBlend mode="normal" in2="BackgroundImageFix" result="effect1_dropShadow_27_4230"/>
<feBlend mode="normal" in="SourceGraphic" in2="effect1_dropShadow_27_4230" result="shape"/>
</filter>
<filter id="filter13_d_27_4230" x="108" y="18" width="22" height="23.9999" filterUnits="userSpaceOnUse" color-interpolation-filters="sRGB">
<feFlood flood-opacity="0" result="BackgroundImageFix"/>
<feColorMatrix in="SourceAlpha" type="matrix" values="0 0 0 0 0 0 0 0 0 0 0 0 0 0 0 0 0 0 127 0" result="hardAlpha"/>
<feOffset dx="1" dy="2"/>
<feGaussianBlur stdDeviation="2"/>
<feComposite in2="hardAlpha" operator="out"/>
<feColorMatrix type="matrix" values="0 0 0 0 0 0 0 0 0 0 0 0 0 0 0 0 0 0 0.25 0"/>
<feBlend mode="normal" in2="BackgroundImageFix" result="effect1_dropShadow_27_4230"/>
<feBlend mode="normal" in="SourceGraphic" in2="effect1_dropShadow_27_4230" result="shape"/>
</filter>
<filter id="filter14_d_27_4230" x="140" y="0" width="22" height="23.9999" filterUnits="userSpaceOnUse" color-interpolation-filters="sRGB">
<feFlood flood-opacity="0" result="BackgroundImageFix"/>
<feColorMatrix in="SourceAlpha" type="matrix" values="0 0 0 0 0 0 0 0 0 0 0 0 0 0 0 0 0 0 127 0" result="hardAlpha"/>
<feOffset dx="1" dy="2"/>
<feGaussianBlur stdDeviation="2"/>
<feComposite in2="hardAlpha" operator="out"/>
<feColorMatrix type="matrix" values="0 0 0 0 0 0 0 0 0 0 0 0 0 0 0 0 0 0 0.25 0"/>
<feBlend mode="normal" in2="BackgroundImageFix" result="effect1_dropShadow_27_4230"/>
<feBlend mode="normal" in="SourceGraphic" in2="effect1_dropShadow_27_4230" result="shape"/>
</filter>
<filter id="filter15_d_27_4230" x="128" y="18" width="22" height="23.9999" filterUnits="userSpaceOnUse" color-interpolation-filters="sRGB">
<feFlood flood-opacity="0" result="BackgroundImageFix"/>
<feColorMatrix in="SourceAlpha" type="matrix" values="0 0 0 0 0 0 0 0 0 0 0 0 0 0 0 0 0 0 127 0" result="hardAlpha"/>
<feOffset dx="1" dy="2"/>
<feGaussianBlur stdDeviation="2"/>
<feComposite in2="hardAlpha" operator="out"/>
<feColorMatrix type="matrix" values="0 0 0 0 0 0 0 0 0 0 0 0 0 0 0 0 0 0 0.25 0"/>
<feBlend mode="normal" in2="BackgroundImageFix" result="effect1_dropShadow_27_4230"/>
<feBlend mode="normal" in="SourceGraphic" in2="effect1_dropShadow_27_4230" result="shape"/>
</filter>
<filter id="filter16_d_27_4230" x="160" y="0" width="22" height="23.9999" filterUnits="userSpaceOnUse" color-interpolation-filters="sRGB">
<feFlood flood-opacity="0" result="BackgroundImageFix"/>
<feColorMatrix in="SourceAlpha" type="matrix" values="0 0 0 0 0 0 0 0 0 0 0 0 0 0 0 0 0 0 127 0" result="hardAlpha"/>
<feOffset dx="1" dy="2"/>
<feGaussianBlur stdDeviation="2"/>
<feComposite in2="hardAlpha" operator="out"/>
<feColorMatrix type="matrix" values="0 0 0 0 0 0 0 0 0 0 0 0 0 0 0 0 0 0 0.25 0"/>
<feBlend mode="normal" in2="BackgroundImageFix" result="effect1_dropShadow_27_4230"/>
<feBlend mode="normal" in="SourceGraphic" in2="effect1_dropShadow_27_4230" result="shape"/>
</filter>
<filter id="filter17_d_27_4230" x="148" y="18" width="22" height="23.9999" filterUnits="userSpaceOnUse" color-interpolation-filters="sRGB">
<feFlood flood-opacity="0" result="BackgroundImageFix"/>
<feColorMatrix in="SourceAlpha" type="matrix" values="0 0 0 0 0 0 0 0 0 0 0 0 0 0 0 0 0 0 127 0" result="hardAlpha"/>
<feOffset dx="1" dy="2"/>
<feGaussianBlur stdDeviation="2"/>
<feComposite in2="hardAlpha" operator="out"/>
<feColorMatrix type="matrix" values="0 0 0 0 0 0 0 0 0 0 0 0 0 0 0 0 0 0 0.25 0"/>
<feBlend mode="normal" in2="BackgroundImageFix" result="effect1_dropShadow_27_4230"/>
<feBlend mode="normal" in="SourceGraphic" in2="effect1_dropShadow_27_4230" result="shape"/>
</filter>
<filter id="filter18_d_27_4230" x="180" y="0" width="22" height="23.9999" filterUnits="userSpaceOnUse" color-interpolation-filters="sRGB">
<feFlood flood-opacity="0" result="BackgroundImageFix"/>
<feColorMatrix in="SourceAlpha" type="matrix" values="0 0 0 0 0 0 0 0 0 0 0 0 0 0 0 0 0 0 127 0" result="hardAlpha"/>
<feOffset dx="1" dy="2"/>
<feGaussianBlur stdDeviation="2"/>
<feComposite in2="hardAlpha" operator="out"/>
<feColorMatrix type="matrix" values="0 0 0 0 0 0 0 0 0 0 0 0 0 0 0 0 0 0 0.25 0"/>
<feBlend mode="normal" in2="BackgroundImageFix" result="effect1_dropShadow_27_4230"/>
<feBlend mode="normal" in="SourceGraphic" in2="effect1_dropShadow_27_4230" result="shape"/>
</filter>
<filter id="filter19_d_27_4230" x="168" y="18" width="22" height="23.9999" filterUnits="userSpaceOnUse" color-interpolation-filters="sRGB">
<feFlood flood-opacity="0" result="BackgroundImageFix"/>
<feColorMatrix in="SourceAlpha" type="matrix" values="0 0 0 0 0 0 0 0 0 0 0 0 0 0 0 0 0 0 127 0" result="hardAlpha"/>
<feOffset dx="1" dy="2"/>
<feGaussianBlur stdDeviation="2"/>
<feComposite in2="hardAlpha" operator="out"/>
<feColorMatrix type="matrix" values="0 0 0 0 0 0 0 0 0 0 0 0 0 0 0 0 0 0 0.25 0"/>
<feBlend mode="normal" in2="BackgroundImageFix" result="effect1_dropShadow_27_4230"/>
<feBlend mode="normal" in="SourceGraphic" in2="effect1_dropShadow_27_4230" result="shape"/>
</filter>
<filter id="filter20_d_27_4230" x="200" y="0" width="22" height="23.9999" filterUnits="userSpaceOnUse" color-interpolation-filters="sRGB">
<feFlood flood-opacity="0" result="BackgroundImageFix"/>
<feColorMatrix in="SourceAlpha" type="matrix" values="0 0 0 0 0 0 0 0 0 0 0 0 0 0 0 0 0 0 127 0" result="hardAlpha"/>
<feOffset dx="1" dy="2"/>
<feGaussianBlur stdDeviation="2"/>
<feComposite in2="hardAlpha" operator="out"/>
<feColorMatrix type="matrix" values="0 0 0 0 0 0 0 0 0 0 0 0 0 0 0 0 0 0 0.25 0"/>
<feBlend mode="normal" in2="BackgroundImageFix" result="effect1_dropShadow_27_4230"/>
<feBlend mode="normal" in="SourceGraphic" in2="effect1_dropShadow_27_4230" result="shape"/>
</filter>
<filter id="filter21_d_27_4230" x="188" y="18" width="22" height="23.9999" filterUnits="userSpaceOnUse" color-interpolation-filters="sRGB">
<feFlood flood-opacity="0" result="BackgroundImageFix"/>
<feColorMatrix in="SourceAlpha" type="matrix" values="0 0 0 0 0 0 0 0 0 0 0 0 0 0 0 0 0 0 127 0" result="hardAlpha"/>
<feOffset dx="1" dy="2"/>
<feGaussianBlur stdDeviation="2"/>
<feComposite in2="hardAlpha" operator="out"/>
<feColorMatrix type="matrix" values="0 0 0 0 0 0 0 0 0 0 0 0 0 0 0 0 0 0 0.25 0"/>
<feBlend mode="normal" in2="BackgroundImageFix" result="effect1_dropShadow_27_4230"/>
<feBlend mode="normal" in="SourceGraphic" in2="effect1_dropShadow_27_4230" result="shape"/>
</filter>
<filter id="filter22_d_27_4230" x="220" y="0" width="22" height="23.9999" filterUnits="userSpaceOnUse" color-interpolation-filters="sRGB">
<feFlood flood-opacity="0" result="BackgroundImageFix"/>
<feColorMatrix in="SourceAlpha" type="matrix" values="0 0 0 0 0 0 0 0 0 0 0 0 0 0 0 0 0 0 127 0" result="hardAlpha"/>
<feOffset dx="1" dy="2"/>
<feGaussianBlur stdDeviation="2"/>
<feComposite in2="hardAlpha" operator="out"/>
<feColorMatrix type="matrix" values="0 0 0 0 0 0 0 0 0 0 0 0 0 0 0 0 0 0 0.25 0"/>
<feBlend mode="normal" in2="BackgroundImageFix" result="effect1_dropShadow_27_4230"/>
<feBlend mode="normal" in="SourceGraphic" in2="effect1_dropShadow_27_4230" result="shape"/>
</filter>
<filter id="filter23_d_27_4230" x="208" y="18" width="22" height="23.9999" filterUnits="userSpaceOnUse" color-interpolation-filters="sRGB">
<feFlood flood-opacity="0" result="BackgroundImageFix"/>
<feColorMatrix in="SourceAlpha" type="matrix" values="0 0 0 0 0 0 0 0 0 0 0 0 0 0 0 0 0 0 127 0" result="hardAlpha"/>
<feOffset dx="1" dy="2"/>
<feGaussianBlur stdDeviation="2"/>
<feComposite in2="hardAlpha" operator="out"/>
<feColorMatrix type="matrix" values="0 0 0 0 0 0 0 0 0 0 0 0 0 0 0 0 0 0 0.25 0"/>
<feBlend mode="normal" in2="BackgroundImageFix" result="effect1_dropShadow_27_4230"/>
<feBlend mode="normal" in="SourceGraphic" in2="effect1_dropShadow_27_4230" result="shape"/>
</filter>
<filter id="filter24_d_27_4230" x="240" y="0" width="22" height="23.9999" filterUnits="userSpaceOnUse" color-interpolation-filters="sRGB">
<feFlood flood-opacity="0" result="BackgroundImageFix"/>
<feColorMatrix in="SourceAlpha" type="matrix" values="0 0 0 0 0 0 0 0 0 0 0 0 0 0 0 0 0 0 127 0" result="hardAlpha"/>
<feOffset dx="1" dy="2"/>
<feGaussianBlur stdDeviation="2"/>
<feComposite in2="hardAlpha" operator="out"/>
<feColorMatrix type="matrix" values="0 0 0 0 0 0 0 0 0 0 0 0 0 0 0 0 0 0 0.25 0"/>
<feBlend mode="normal" in2="BackgroundImageFix" result="effect1_dropShadow_27_4230"/>
<feBlend mode="normal" in="SourceGraphic" in2="effect1_dropShadow_27_4230" result="shape"/>
</filter>
<filter id="filter25_d_27_4230" x="228" y="18" width="22" height="23.9999" filterUnits="userSpaceOnUse" color-interpolation-filters="sRGB">
<feFlood flood-opacity="0" result="BackgroundImageFix"/>
<feColorMatrix in="SourceAlpha" type="matrix" values="0 0 0 0 0 0 0 0 0 0 0 0 0 0 0 0 0 0 127 0" result="hardAlpha"/>
<feOffset dx="1" dy="2"/>
<feGaussianBlur stdDeviation="2"/>
<feComposite in2="hardAlpha" operator="out"/>
<feColorMatrix type="matrix" values="0 0 0 0 0 0 0 0 0 0 0 0 0 0 0 0 0 0 0.25 0"/>
<feBlend mode="normal" in2="BackgroundImageFix" result="effect1_dropShadow_27_4230"/>
<feBlend mode="normal" in="SourceGraphic" in2="effect1_dropShadow_27_4230" result="shape"/>
</filter>
<filter id="filter26_d_27_4230" x="260" y="0" width="22" height="23.9999" filterUnits="userSpaceOnUse" color-interpolation-filters="sRGB">
<feFlood flood-opacity="0" result="BackgroundImageFix"/>
<feColorMatrix in="SourceAlpha" type="matrix" values="0 0 0 0 0 0 0 0 0 0 0 0 0 0 0 0 0 0 127 0" result="hardAlpha"/>
<feOffset dx="1" dy="2"/>
<feGaussianBlur stdDeviation="2"/>
<feComposite in2="hardAlpha" operator="out"/>
<feColorMatrix type="matrix" values="0 0 0 0 0 0 0 0 0 0 0 0 0 0 0 0 0 0 0.25 0"/>
<feBlend mode="normal" in2="BackgroundImageFix" result="effect1_dropShadow_27_4230"/>
<feBlend mode="normal" in="SourceGraphic" in2="effect1_dropShadow_27_4230" result="shape"/>
</filter>
<filter id="filter27_d_27_4230" x="248" y="18" width="22" height="23.9999" filterUnits="userSpaceOnUse" color-interpolation-filters="sRGB">
<feFlood flood-opacity="0" result="BackgroundImageFix"/>
<feColorMatrix in="SourceAlpha" type="matrix" values="0 0 0 0 0 0 0 0 0 0 0 0 0 0 0 0 0 0 127 0" result="hardAlpha"/>
<feOffset dx="1" dy="2"/>
<feGaussianBlur stdDeviation="2"/>
<feComposite in2="hardAlpha" operator="out"/>
<feColorMatrix type="matrix" values="0 0 0 0 0 0 0 0 0 0 0 0 0 0 0 0 0 0 0.25 0"/>
<feBlend mode="normal" in2="BackgroundImageFix" result="effect1_dropShadow_27_4230"/>
<feBlend mode="normal" in="SourceGraphic" in2="effect1_dropShadow_27_4230" result="shape"/>
</filter>
<filter id="filter28_d_27_4230" x="280" y="0" width="22" height="23.9999" filterUnits="userSpaceOnUse" color-interpolation-filters="sRGB">
<feFlood flood-opacity="0" result="BackgroundImageFix"/>
<feColorMatrix in="SourceAlpha" type="matrix" values="0 0 0 0 0 0 0 0 0 0 0 0 0 0 0 0 0 0 127 0" result="hardAlpha"/>
<feOffset dx="1" dy="2"/>
<feGaussianBlur stdDeviation="2"/>
<feComposite in2="hardAlpha" operator="out"/>
<feColorMatrix type="matrix" values="0 0 0 0 0 0 0 0 0 0 0 0 0 0 0 0 0 0 0.25 0"/>
<feBlend mode="normal" in2="BackgroundImageFix" result="effect1_dropShadow_27_4230"/>
<feBlend mode="normal" in="SourceGraphic" in2="effect1_dropShadow_27_4230" result="shape"/>
</filter>
<filter id="filter29_d_27_4230" x="268" y="18" width="22" height="23.9999" filterUnits="userSpaceOnUse" color-interpolation-filters="sRGB">
<feFlood flood-opacity="0" result="BackgroundImageFix"/>
<feColorMatrix in="SourceAlpha" type="matrix" values="0 0 0 0 0 0 0 0 0 0 0 0 0 0 0 0 0 0 127 0" result="hardAlpha"/>
<feOffset dx="1" dy="2"/>
<feGaussianBlur stdDeviation="2"/>
<feComposite in2="hardAlpha" operator="out"/>
<feColorMatrix type="matrix" values="0 0 0 0 0 0 0 0 0 0 0 0 0 0 0 0 0 0 0.25 0"/>
<feBlend mode="normal" in2="BackgroundImageFix" result="effect1_dropShadow_27_4230"/>
<feBlend mode="normal" in="SourceGraphic" in2="effect1_dropShadow_27_4230" result="shape"/>
</filter>
<filter id="filter30_d_27_4230" x="300" y="0" width="22" height="23.9999" filterUnits="userSpaceOnUse" color-interpolation-filters="sRGB">
<feFlood flood-opacity="0" result="BackgroundImageFix"/>
<feColorMatrix in="SourceAlpha" type="matrix" values="0 0 0 0 0 0 0 0 0 0 0 0 0 0 0 0 0 0 127 0" result="hardAlpha"/>
<feOffset dx="1" dy="2"/>
<feGaussianBlur stdDeviation="2"/>
<feComposite in2="hardAlpha" operator="out"/>
<feColorMatrix type="matrix" values="0 0 0 0 0 0 0 0 0 0 0 0 0 0 0 0 0 0 0.25 0"/>
<feBlend mode="normal" in2="BackgroundImageFix" result="effect1_dropShadow_27_4230"/>
<feBlend mode="normal" in="SourceGraphic" in2="effect1_dropShadow_27_4230" result="shape"/>
</filter>
<filter id="filter31_d_27_4230" x="288" y="18" width="22" height="23.9999" filterUnits="userSpaceOnUse" color-interpolation-filters="sRGB">
<feFlood flood-opacity="0" result="BackgroundImageFix"/>
<feColorMatrix in="SourceAlpha" type="matrix" values="0 0 0 0 0 0 0 0 0 0 0 0 0 0 0 0 0 0 127 0" result="hardAlpha"/>
<feOffset dx="1" dy="2"/>
<feGaussianBlur stdDeviation="2"/>
<feComposite in2="hardAlpha" operator="out"/>
<feColorMatrix type="matrix" values="0 0 0 0 0 0 0 0 0 0 0 0 0 0 0 0 0 0 0.25 0"/>
<feBlend mode="normal" in2="BackgroundImageFix" result="effect1_dropShadow_27_4230"/>
<feBlend mode="normal" in="SourceGraphic" in2="effect1_dropShadow_27_4230" result="shape"/>
</filter>
<filter id="filter32_d_27_4230" x="320" y="0" width="22" height="23.9999" filterUnits="userSpaceOnUse" color-interpolation-filters="sRGB">
<feFlood flood-opacity="0" result="BackgroundImageFix"/>
<feColorMatrix in="SourceAlpha" type="matrix" values="0 0 0 0 0 0 0 0 0 0 0 0 0 0 0 0 0 0 127 0" result="hardAlpha"/>
<feOffset dx="1" dy="2"/>
<feGaussianBlur stdDeviation="2"/>
<feComposite in2="hardAlpha" operator="out"/>
<feColorMatrix type="matrix" values="0 0 0 0 0 0 0 0 0 0 0 0 0 0 0 0 0 0 0.25 0"/>
<feBlend mode="normal" in2="BackgroundImageFix" result="effect1_dropShadow_27_4230"/>
<feBlend mode="normal" in="SourceGraphic" in2="effect1_dropShadow_27_4230" result="shape"/>
</filter>
<filter id="filter33_d_27_4230" x="308" y="18" width="22" height="23.9999" filterUnits="userSpaceOnUse" color-interpolation-filters="sRGB">
<feFlood flood-opacity="0" result="BackgroundImageFix"/>
<feColorMatrix in="SourceAlpha" type="matrix" values="0 0 0 0 0 0 0 0 0 0 0 0 0 0 0 0 0 0 127 0" result="hardAlpha"/>
<feOffset dx="1" dy="2"/>
<feGaussianBlur stdDeviation="2"/>
<feComposite in2="hardAlpha" operator="out"/>
<feColorMatrix type="matrix" values="0 0 0 0 0 0 0 0 0 0 0 0 0 0 0 0 0 0 0.25 0"/>
<feBlend mode="normal" in2="BackgroundImageFix" result="effect1_dropShadow_27_4230"/>
<feBlend mode="normal" in="SourceGraphic" in2="effect1_dropShadow_27_4230" result="shape"/>
</filter>
<filter id="filter34_d_27_4230" x="340" y="0" width="22" height="23.9999" filterUnits="userSpaceOnUse" color-interpolation-filters="sRGB">
<feFlood flood-opacity="0" result="BackgroundImageFix"/>
<feColorMatrix in="SourceAlpha" type="matrix" values="0 0 0 0 0 0 0 0 0 0 0 0 0 0 0 0 0 0 127 0" result="hardAlpha"/>
<feOffset dx="1" dy="2"/>
<feGaussianBlur stdDeviation="2"/>
<feComposite in2="hardAlpha" operator="out"/>
<feColorMatrix type="matrix" values="0 0 0 0 0 0 0 0 0 0 0 0 0 0 0 0 0 0 0.25 0"/>
<feBlend mode="normal" in2="BackgroundImageFix" result="effect1_dropShadow_27_4230"/>
<feBlend mode="normal" in="SourceGraphic" in2="effect1_dropShadow_27_4230" result="shape"/>
</filter>
<filter id="filter35_d_27_4230" x="328" y="18" width="22" height="23.9999" filterUnits="userSpaceOnUse" color-interpolation-filters="sRGB">
<feFlood flood-opacity="0" result="BackgroundImageFix"/>
<feColorMatrix in="SourceAlpha" type="matrix" values="0 0 0 0 0 0 0 0 0 0 0 0 0 0 0 0 0 0 127 0" result="hardAlpha"/>
<feOffset dx="1" dy="2"/>
<feGaussianBlur stdDeviation="2"/>
<feComposite in2="hardAlpha" operator="out"/>
<feColorMatrix type="matrix" values="0 0 0 0 0 0 0 0 0 0 0 0 0 0 0 0 0 0 0.25 0"/>
<feBlend mode="normal" in2="BackgroundImageFix" result="effect1_dropShadow_27_4230"/>
<feBlend mode="normal" in="SourceGraphic" in2="effect1_dropShadow_27_4230" result="shape"/>
</filter>
<filter id="filter36_d_27_4230" x="348" y="18" width="22" height="23.9999" filterUnits="userSpaceOnUse" color-interpolation-filters="sRGB">
<feFlood flood-opacity="0" result="BackgroundImageFix"/>
<feColorMatrix in="SourceAlpha" type="matrix" values="0 0 0 0 0 0 0 0 0 0 0 0 0 0 0 0 0 0 127 0" result="hardAlpha"/>
<feOffset dx="1" dy="2"/>
<feGaussianBlur stdDeviation="2"/>
<feComposite in2="hardAlpha" operator="out"/>
<feColorMatrix type="matrix" values="0 0 0 0 0 0 0 0 0 0 0 0 0 0 0 0 0 0 0.25 0"/>
<feBlend mode="normal" in2="BackgroundImageFix" result="effect1_dropShadow_27_4230"/>
<feBlend mode="normal" in="SourceGraphic" in2="effect1_dropShadow_27_4230" result="shape"/>
</filter>
</defs>
</svg>
